<?xml version="1.0" standalone="no"?><!DOCTYPE svg PUBLIC "-//W3C//DTD SVG 1.1//EN" "http://www.w3.org/Graphics/SVG/1.1/DTD/svg11.dtd"><svg t="1711869945002" class="icon" viewBox="0 0 1024 1024" version="1.1" xmlns="http://www.w3.org/2000/svg" p-id="4245" xmlns:xlink="http://www.w3.org/1999/xlink" width="200" height="200"><path d="M610.418584 326.72178C592.549678 298.299051 572.112117 267.419348 545.923001 229.392082 531.907078 209.122042 517.723634 188.852001 503.54019 168.693642L492.092922 152.444105C480.198931 135.412804 468.304941 118.381503 456.857673 101.852765c-7.817646-12.675755-15.523612-21.331007-23.397099-26.412477C428.099902 72.034028 422.627549 70.302977 417.155197 70.302977L416.261752 70.302977 416.094231 70.302977C410.230996 70.638019 404.535282 72.815792 399.23045 77.003817 392.306249 82.364489 386.107973 90.796379 380.523939 101.908605 373.264696 113.300033 365.949613 124.970662 358.522849 136.585451l-8.264369 12.843276L343.334279 160.317592C330.602683 180.19675 317.982768 200.020068 305.530374 219.899226 281.630712 257.64729 263.035882 288.136111 246.786345 315.777075 213.728869 372.399171 188.321518 421.706184 169.279965 466.657651c-42.438652 100.065874-56.510416 185.724943-42.773694 262.058676 9.213655 51.596466 31.549787 100.289235 66.617516 144.570618l0.335042 0.558403 0.502563 0.390882C222.830843 902.100556 254.045588 925.218453 286.823863 942.975679c47.799324 25.909914 96.212891 39.032392 143.733013 39.032392 23.452939 0 46.794198-3.35042 69.186171-9.883739 17.142982-5.137311 34.006762-12.173192 49.753735-21.051805 17.310503-9.660377 33.783401-21.721889 48.692769-35.514451 50.367979-42.997055 85.491548-89.847093 107.157596-143.342131 5.751554-14.350965 10.05126-29.651216 13.51336-48.246046 2.345294-12.954957 3.908823-26.244956 4.578907-38.641509 7.873487-62.987894-2.624496-129.60541-31.99651-203.482168C672.959756 435.387065 646.491439 384.684044 610.418584 326.72178zM383.315956 923.208202c-137.143854-20.828444-231.402334-148.926164-210.46221-285.958338 3.517941-23.285418 14.630167-87.55764 19.488276-65.61239 65.72407 294.334388 322.980478 336.158796 322.980478 336.158796C474.838259 924.101647 429.55175 930.244083 383.315956 923.208202zM901.737594 272.724179c-0.223361 4.411386-0.725924 9.437016-1.563529 14.406806-1.228487 7.147562-2.736176 13.010797-4.746428 18.53899-7.538445 20.325881-19.655797 38.138946-37.189661 54.500164-5.248991 5.304831-11.112226 9.939579-17.254662 13.792562-5.695714 3.462101-11.78231 6.198277-18.036427 8.264369-8.041008 2.568655-16.528738 3.908823-25.072309 3.908823-17.087141 0-34.230123-5.02563-51.261424-15.07689-11.447268-6.81252-22.336133-15.691133-32.275712-26.189115l-0.390882-0.390882-0.335042-0.558403c-12.173192-16.80794-19.934998-35.34693-23.173738-55.058567-4.802269-28.757771 0-60.921802 14.518486-98.390664 6.477478-16.528738 15.021049-34.732686 26.189115-55.672811 5.416512-10.16294 11.503108-20.940124 19.655797-35.179409 4.188025-7.259243 8.43189-14.518486 12.731596-21.777729l5.02563-8.599411 1.451849-2.568655 5.863235-10.1071c2.010252-4.355546 4.523067-8.096848 7.482604-10.609663 2.847857-2.345294 6.086596-3.741302 9.437016-3.908823 0.05584 0 0.111681 0 0.111681 0 3.908823 0 6.924201 0.949286 9.772058 3.015378 3.462101 2.289454 6.533319 6.198277 9.604537 11.558949 3.127059 4.913949 6.533319 10.330461 9.995419 15.635293l1.61937 2.624496 5.137311 8.096848c4.299706 6.589159 8.543571 13.289999 12.787436 20.046679 8.878613 13.960083 15.691133 25.29567 21.666049 35.737812 12.229033 21.331007 21.163486 40.093358 27.417603 57.348021C900.844149 223.91973 904.41793 248.880358 901.737594 272.724179z" p-id="4246" fill="#1296db"></path></svg>